<svg width="36" height="36" viewBox="0 0 36 36" fill="none" xmlns="http://www.w3.org/2000/svg">
<path opacity="0.5" d="M21.0075 6H14.9925C9.32158 6 6.4861 6 4.72437 7.75736C3.51137 8.96735 3.13355 10.6851 3.01587 13.4842C2.99253 14.0393 2.98086 14.3169 3.08452 14.502C3.18817 14.6872 3.60199 14.9183 4.42961 15.3805L4.42962 15.3805C5.34878 15.8938 5.9701 16.8745 5.9701 18C5.9701 19.1255 5.34878 20.1062 4.42962 20.6195C3.602 21.0817 3.18817 21.3128 3.08452 21.498C2.98086 21.6831 2.99253 21.9607 3.01587 22.5158C3.13355 25.3149 3.51137 27.0327 4.72437 28.2426C6.4861 30 9.32158 30 14.9925 30H21.0075C26.6784 30 29.5139 30 31.2756 28.2426C32.4886 27.0327 32.8664 25.3149 32.9841 22.5158C33.0075 21.9607 33.0191 21.6831 32.9155 21.498C32.8118 21.3128 32.398 21.0817 31.5704 20.6195C30.6512 20.1062 30.0299 19.1255 30.0299 18C30.0299 16.8745 30.6512 15.8938 31.5704 15.3805C32.398 14.9183 32.8118 14.6872 32.9155 14.502C33.0191 14.3169 33.0075 14.0393 32.9841 13.4842C32.8664 10.6851 32.4886 8.96735 31.2756 7.75736C29.5139 6 26.6784 6 21.0075 6Z" fill="#79A400"/>
<path d="M23.3212 12.7045C23.7617 13.1438 23.7617 13.8562 23.3212 14.2955L14.2988 23.2955C13.8584 23.7348 13.1443 23.7348 12.7039 23.2955C12.2634 22.8562 12.2634 22.1438 12.7039 21.7045L21.7263 12.7045C22.1667 12.2652 22.8808 12.2652 23.3212 12.7045Z" fill="#79A400"/>
<path d="M21.7719 23.25C22.6024 23.25 23.2756 22.5784 23.2756 21.75C23.2756 20.9216 22.6024 20.25 21.7719 20.25C20.9414 20.25 20.2682 20.9216 20.2682 21.75C20.2682 22.5784 20.9414 23.25 21.7719 23.25Z" fill="#79A400"/>
<path d="M14.2532 15.75C15.0837 15.75 15.7569 15.0784 15.7569 14.25C15.7569 13.4216 15.0837 12.75 14.2532 12.75C13.4227 12.75 12.7495 13.4216 12.7495 14.25C12.7495 15.0784 13.4227 15.75 14.2532 15.75Z" fill="#79A400"/>
</svg>
